<?xml version="1.0" encoding="UTF-8" ?>
<!DOCTYPE svg PUBLIC "-//W3C//DTD SVG 1.1//EN" "http://www.w3.org/Graphics/SVG/1.1/DTD/svg11.dtd">
<svg width="2617pt" height="180pt" viewBox="0 0 2617 180" version="1.1" xmlns="http://www.w3.org/2000/svg">
<path fill="#fdfdfd" d=" M 0.00 0.00 L 95.32 0.00 C 91.50 2.71 86.91 3.87 82.66 5.71 C 55.13 16.83 27.45 27.61 0.00 38.91 L 0.00 0.00 Z" />
<path fill="#3e9cda" d=" M 95.32 0.00 L 96.73 0.00 C 100.02 2.52 104.10 3.52 107.85 5.12 C 135.91 16.40 164.03 27.50 192.05 38.88 C 191.99 43.13 192.01 47.39 191.98 51.65 C 187.84 51.60 183.71 51.59 179.58 51.73 C 178.48 54.00 177.40 56.82 174.67 57.52 C 170.83 58.41 166.83 57.91 162.93 58.01 C 115.94 58.01 68.95 57.97 21.97 58.03 C 19.96 57.95 17.80 58.01 16.02 56.93 C 14.08 55.84 13.42 53.57 12.43 51.74 C 8.29 51.59 4.14 51.60 0.00 51.62 L 0.00 38.91 C 27.45 27.61 55.13 16.83 82.66 5.71 C 86.91 3.87 91.50 2.71 95.32 0.00 Z" />
<path fill="#fdfdfd" d=" M 96.73 0.00 L 2617.00 0.00 L 2617.00 180.00 L 191.70 180.00 C 192.10 175.34 192.27 170.63 191.81 165.98 C 191.56 163.19 189.06 161.01 186.37 160.64 C 182.27 160.08 178.12 160.44 174.00 160.37 C 120.99 160.36 67.98 160.40 14.98 160.36 C 11.37 160.45 7.64 159.95 4.14 161.04 C 1.83 161.77 0.67 164.05 0.00 166.21 L 0.00 51.62 C 4.14 51.60 8.29 51.59 12.43 51.74 C 13.42 53.57 14.08 55.84 16.02 56.93 C 17.80 58.01 19.96 57.95 21.97 58.03 C 68.95 57.97 115.94 58.01 162.93 58.01 C 166.83 57.91 170.83 58.41 174.67 57.52 C 177.40 56.82 178.48 54.00 179.58 51.73 C 183.71 51.59 187.84 51.60 191.98 51.65 C 192.01 47.39 191.99 43.13 192.05 38.88 C 164.03 27.50 135.91 16.40 107.85 5.12 C 104.10 3.52 100.02 2.52 96.73 0.00 Z" />
<path fill="#61696a" d=" M 587.37 39.34 C 595.78 29.93 608.61 25.69 620.95 25.16 C 638.01 24.57 655.57 29.43 668.92 40.32 C 665.11 45.92 661.15 51.43 657.18 56.92 C 648.51 49.59 637.23 46.17 626.07 45.26 C 619.65 44.83 612.85 45.87 607.50 49.63 C 601.87 53.76 601.08 62.51 604.97 68.06 C 607.49 71.77 611.91 73.39 615.90 75.01 C 630.94 80.47 647.93 81.71 660.96 91.83 C 669.28 97.64 672.68 108.20 672.40 118.00 C 672.86 128.11 668.50 138.30 660.65 144.74 C 650.89 153.14 637.57 155.86 625.00 155.33 C 606.41 155.21 588.41 147.39 574.70 135.01 C 579.24 129.45 583.67 123.78 588.55 118.50 C 599.21 127.75 612.55 135.06 626.99 135.08 C 633.89 135.28 641.57 133.82 646.39 128.46 C 651.10 123.42 650.99 114.75 646.03 109.92 C 642.14 106.37 637.01 104.63 632.08 103.04 C 618.18 98.93 602.89 97.05 591.18 87.79 C 585.57 83.67 581.96 77.28 580.68 70.50 C 578.81 59.85 579.96 47.77 587.37 39.34 Z" />
<path fill="#61696a" d=" M 1227.48 25.71 C 1246.86 23.10 1267.84 28.08 1282.34 41.67 C 1297.07 54.19 1304.66 73.84 1303.46 93.00 C 1303.34 111.47 1294.39 129.50 1279.83 140.83 C 1264.11 154.16 1241.95 157.68 1222.14 153.76 C 1197.32 149.00 1176.17 128.06 1172.11 102.98 C 1169.63 88.04 1171.22 72.02 1178.62 58.62 C 1188.50 40.76 1207.09 27.93 1227.48 25.71 Z" />
<path fill="#61696a" d=" M 271.16 28.07 C 282.33 28.06 293.49 27.99 304.66 28.11 C 317.22 54.13 329.52 80.29 342.37 106.17 C 354.81 80.06 367.27 53.96 379.94 27.96 C 391.00 28.14 402.06 28.02 413.12 28.04 C 413.09 70.02 413.16 112.01 413.08 154.00 C 405.85 153.98 398.63 154.04 391.41 153.96 C 391.45 121.91 391.51 89.85 391.38 57.80 C 379.93 79.43 369.30 101.49 358.16 123.29 C 354.71 129.79 351.82 136.61 348.04 142.92 C 344.00 143.18 339.94 142.94 335.89 143.05 C 321.61 114.70 307.29 86.36 293.25 57.89 C 293.10 59.61 292.97 61.32 292.94 63.05 C 292.91 93.34 293.00 123.64 292.89 153.94 C 285.65 154.05 278.41 154.00 271.17 153.97 C 271.14 112.00 271.17 70.03 271.16 28.07 Z" />
<path fill="#61696a" d=" M 445.40 28.12 C 452.64 27.96 459.88 28.10 467.12 28.04 C 467.11 49.38 467.13 70.72 467.11 92.06 C 466.92 103.27 467.96 115.56 475.58 124.45 C 484.74 135.84 502.32 137.75 514.71 130.81 C 521.23 126.84 526.05 120.34 528.29 113.07 C 530.54 106.29 530.55 99.07 530.45 92.00 C 530.43 70.70 530.47 49.39 530.43 28.09 C 537.66 28.00 544.89 28.08 552.12 28.04 C 552.10 53.03 552.13 78.03 552.11 103.02 C 551.69 117.74 546.59 133.15 534.94 142.78 C 521.83 154.57 502.75 157.18 485.93 154.00 C 474.67 151.95 464.32 145.78 457.04 136.99 C 450.58 129.10 447.21 119.10 446.09 109.06 C 445.18 100.06 445.49 91.01 445.44 81.98 C 445.42 64.03 445.49 46.07 445.40 28.12 Z" />
<path fill="#61696a" d=" M 697.16 28.07 C 726.67 28.04 756.18 28.02 785.69 28.08 C 785.50 34.88 785.99 41.70 785.47 48.47 C 763.31 48.99 741.11 48.51 718.93 48.71 C 718.93 59.53 718.95 70.36 718.92 81.19 C 738.91 81.21 758.91 81.22 778.91 81.19 C 778.98 87.59 778.87 93.99 778.99 100.39 C 758.98 101.02 738.94 100.44 718.91 100.67 C 719.02 111.66 718.79 122.65 719.04 133.64 C 742.02 133.53 764.99 133.59 787.97 133.61 C 787.89 140.39 787.99 147.17 787.90 153.95 C 757.66 154.04 727.42 154.00 697.18 153.97 C 697.13 112.00 697.17 70.04 697.16 28.07 Z" />
<path fill="#61696a" d=" M 813.47 98.02 C 813.47 74.67 813.32 51.32 813.55 27.98 C 820.74 28.11 827.93 28.03 835.12 28.04 C 835.13 50.70 835.08 73.36 835.14 96.03 C 835.13 106.01 836.91 116.66 843.60 124.48 C 854.71 138.23 878.48 138.35 889.80 124.79 C 896.23 117.51 898.47 107.48 898.45 97.98 C 898.42 74.68 898.47 51.39 898.42 28.09 C 905.65 27.99 912.88 28.09 920.11 28.03 C 920.11 53.01 920.13 77.99 920.11 102.97 C 919.69 117.48 914.79 132.68 903.45 142.33 C 893.16 151.86 878.74 155.75 864.96 155.17 C 849.15 155.22 833.15 148.18 823.72 135.26 C 815.76 124.64 813.49 111.00 813.47 98.02 Z" />
<path fill="#61696a" d=" M 953.15 28.08 C 964.33 28.06 975.51 27.96 986.69 28.13 C 999.20 54.16 1011.55 80.29 1024.36 106.17 C 1036.79 80.08 1049.28 54.00 1061.90 27.99 C 1072.97 28.11 1084.04 28.03 1095.12 28.04 C 1095.09 70.02 1095.16 112.01 1095.08 154.00 C 1087.85 153.97 1080.62 154.07 1073.39 153.94 C 1073.46 121.90 1073.52 89.86 1073.36 57.83 C 1058.55 86.03 1044.73 114.76 1030.12 143.07 C 1026.04 142.99 1021.97 142.99 1017.91 143.07 C 1003.53 114.72 989.41 86.24 975.10 57.86 C 974.68 89.88 975.12 121.92 974.88 153.95 C 967.64 154.03 960.40 154.02 953.17 153.96 C 953.14 112.00 953.17 70.04 953.15 28.08 Z" />
<path fill="#61696a" d=" M 1329.15 28.08 C 1357.14 28.00 1385.13 28.09 1413.12 28.04 C 1413.11 34.84 1413.12 41.63 1413.11 48.43 C 1392.43 48.42 1371.74 48.51 1351.06 48.39 C 1350.77 59.67 1351.02 70.95 1350.93 82.24 C 1369.39 82.22 1387.86 82.30 1406.33 82.20 C 1406.38 88.89 1406.39 95.58 1406.32 102.26 C 1387.89 102.37 1369.45 102.33 1351.02 102.29 C 1350.79 119.50 1351.06 136.73 1350.88 153.94 C 1343.64 154.04 1336.40 154.01 1329.17 153.96 C 1329.14 112.00 1329.17 70.04 1329.15 28.08 Z" />
<path fill="#61696a" d=" M 1475.19 29.92 C 1474.75 28.06 1476.59 27.95 1477.95 28.03 C 1509.67 28.06 1541.39 28.05 1573.12 28.04 C 1573.09 34.70 1573.16 41.36 1573.07 48.03 C 1560.36 48.13 1547.64 48.05 1534.93 48.07 C 1534.94 83.38 1534.94 118.68 1534.93 153.98 C 1527.75 153.97 1520.56 154.10 1513.39 153.90 C 1513.48 118.61 1513.48 83.32 1513.39 48.03 C 1500.64 48.12 1487.88 48.07 1475.13 48.06 C 1475.23 42.02 1475.04 35.97 1475.19 29.92 Z" />
<path fill="#61696a" d=" M 1595.16 28.07 C 1602.41 28.04 1609.66 28.03 1616.92 28.08 C 1616.94 46.20 1616.95 64.33 1616.92 82.46 C 1637.43 82.46 1657.94 82.45 1678.46 82.47 C 1678.41 64.34 1678.48 46.22 1678.42 28.10 C 1685.65 27.98 1692.88 28.09 1700.12 28.04 C 1700.11 70.02 1700.12 112.01 1700.11 154.00 C 1692.88 153.94 1685.65 154.12 1678.43 153.89 C 1678.45 136.85 1678.44 119.82 1678.43 102.78 C 1657.93 102.73 1637.43 102.76 1616.92 102.77 C 1616.92 119.83 1617.00 136.89 1616.88 153.95 C 1609.64 154.04 1602.40 154.01 1595.17 153.96 C 1595.14 112.00 1595.16 70.03 1595.16 28.07 Z" />
<path fill="#61696a" d=" M 1735.16 28.07 C 1764.68 28.07 1794.20 27.96 1823.72 28.13 C 1823.50 34.90 1823.94 41.68 1823.51 48.44 C 1801.35 49.05 1779.12 48.48 1756.93 48.71 C 1756.94 59.54 1756.94 70.37 1756.93 81.20 C 1776.92 81.20 1796.91 81.22 1816.91 81.19 C 1816.68 87.61 1817.50 94.17 1816.53 100.50 C 1796.67 100.87 1776.78 100.51 1756.91 100.68 C 1757.04 111.67 1756.77 122.66 1757.06 133.65 C 1780.03 133.52 1803.00 133.60 1825.97 133.61 C 1825.89 140.39 1825.98 147.17 1825.90 153.95 C 1795.65 154.04 1765.41 154.02 1735.17 153.96 C 1735.15 112.00 1735.16 70.03 1735.16 28.07 Z" />
<path fill="#61696a" d=" M 1903.16 28.07 C 1931.14 28.01 1959.13 28.08 1987.12 28.04 C 1987.11 34.83 1987.11 41.63 1987.12 48.42 C 1966.43 48.43 1945.75 48.52 1925.07 48.38 C 1924.76 59.66 1925.03 70.95 1924.92 82.23 C 1943.38 82.22 1961.84 82.32 1980.30 82.18 C 1980.40 88.88 1980.39 95.58 1980.30 102.28 C 1961.87 102.36 1943.43 102.32 1925.00 102.30 C 1924.82 119.51 1925.05 136.73 1924.88 153.95 C 1917.64 154.04 1910.40 154.02 1903.16 153.96 C 1903.15 112.00 1903.16 70.03 1903.16 28.07 Z" />
<path fill="#61696a" d=" M 2009.40 28.13 C 2016.63 27.95 2023.87 28.10 2031.12 28.04 C 2031.17 51.39 2030.99 74.75 2031.21 98.10 C 2031.32 107.42 2033.41 117.20 2039.59 124.46 C 2050.70 138.23 2074.50 138.36 2085.81 124.77 C 2092.22 117.50 2094.47 107.50 2094.45 98.02 C 2094.41 74.71 2094.48 51.41 2094.42 28.11 C 2101.64 27.98 2108.88 28.09 2116.12 28.04 C 2116.10 53.03 2116.13 78.03 2116.11 103.03 C 2115.67 115.01 2112.47 127.33 2104.81 136.78 C 2094.87 149.25 2078.73 155.65 2062.97 155.18 C 2047.03 155.69 2030.64 149.23 2020.67 136.52 C 2012.47 126.30 2009.66 112.90 2009.52 100.06 C 2009.31 76.09 2009.55 52.11 2009.40 28.13 Z" />
<path fill="#61696a" d=" M 2137.39 28.35 C 2146.19 27.62 2155.10 28.27 2163.95 28.05 C 2187.67 28.04 2211.39 28.07 2235.12 28.04 C 2235.09 34.70 2235.16 41.37 2235.06 48.04 C 2222.35 48.12 2209.64 48.06 2196.93 48.07 C 2196.94 83.38 2196.95 118.69 2196.93 153.99 C 2189.75 153.97 2182.57 154.08 2175.40 153.92 C 2175.46 118.63 2175.48 83.33 2175.40 48.04 C 2162.64 48.12 2149.88 48.07 2137.13 48.06 C 2137.34 41.50 2136.79 34.90 2137.39 28.35 Z" />
<path fill="#61696a" d=" M 2255.40 28.12 C 2262.63 27.96 2269.87 28.10 2277.12 28.04 C 2277.13 50.69 2277.08 73.34 2277.14 95.99 C 2277.12 105.98 2278.90 116.66 2285.61 124.48 C 2295.36 136.54 2314.75 138.08 2327.08 129.21 C 2336.46 122.31 2340.44 110.32 2340.44 99.04 C 2340.43 75.40 2340.48 51.75 2340.41 28.11 C 2347.64 27.97 2354.87 28.09 2362.12 28.04 C 2362.12 51.37 2362.10 74.71 2362.13 98.05 C 2362.36 107.34 2361.08 116.79 2357.51 125.41 C 2351.67 139.89 2338.06 150.70 2322.83 153.78 C 2312.99 155.85 2302.58 155.77 2292.83 153.27 C 2278.02 149.69 2265.08 138.62 2259.73 124.28 C 2255.91 114.69 2255.44 104.23 2255.44 94.03 C 2255.42 72.06 2255.49 50.09 2255.40 28.12 Z" />
<path fill="#61696a" d=" M 2395.16 28.07 C 2410.78 28.02 2426.41 28.07 2442.05 28.04 C 2450.08 27.97 2458.12 28.78 2466.00 30.35 C 2473.69 32.01 2481.48 35.09 2486.85 41.08 C 2492.54 47.24 2494.86 55.69 2495.50 63.88 C 2496.20 73.81 2495.09 84.28 2490.01 93.03 C 2485.38 100.72 2477.46 105.81 2469.02 108.42 C 2479.80 123.66 2491.02 138.60 2501.65 153.96 C 2492.45 154.05 2483.25 153.97 2474.06 154.01 C 2464.02 140.03 2454.12 125.95 2444.10 111.95 C 2435.03 111.95 2425.97 111.95 2416.92 111.96 C 2416.93 125.95 2416.97 139.94 2416.90 153.93 C 2409.65 154.06 2402.41 154.00 2395.17 153.97 C 2395.13 112.00 2395.17 70.04 2395.16 28.07 Z" />
<path fill="#61696a" d=" M 2525.16 28.07 C 2554.67 28.07 2584.19 27.98 2613.71 28.11 C 2613.49 34.90 2613.97 41.70 2613.48 48.47 C 2591.31 49.00 2569.11 48.51 2546.93 48.71 C 2546.94 59.54 2546.94 70.37 2546.92 81.20 C 2566.92 81.21 2586.91 81.22 2606.91 81.19 C 2606.97 87.60 2606.89 94.00 2606.97 100.41 C 2586.96 100.98 2566.93 100.46 2546.92 100.67 C 2547.02 111.66 2546.78 122.66 2547.05 133.65 C 2570.02 133.53 2593.00 133.59 2615.97 133.62 C 2615.87 140.40 2616.00 147.18 2615.88 153.97 C 2585.65 154.02 2555.41 154.01 2525.18 153.97 C 2525.13 112.00 2525.16 70.03 2525.16 28.07 Z" />
<path fill="#fdfdfd" d=" M 1229.55 45.70 C 1238.92 43.94 1248.83 45.52 1257.32 49.82 C 1268.21 55.73 1276.67 66.15 1279.80 78.19 C 1281.56 84.93 1281.57 92.06 1280.51 98.91 C 1278.26 112.04 1269.51 123.57 1258.06 130.16 C 1247.95 135.62 1235.64 136.74 1224.65 133.49 C 1215.22 130.87 1207.25 124.39 1201.54 116.58 C 1194.53 106.99 1192.09 94.54 1193.85 82.89 C 1196.38 64.71 1211.31 48.70 1229.55 45.70 Z" />
<path fill="#fdfdfd" d=" M 2416.92 48.00 C 2427.63 48.02 2438.35 47.91 2449.07 48.06 C 2455.52 48.56 2462.49 49.18 2467.85 53.22 C 2472.78 57.62 2473.72 64.74 2473.44 71.00 C 2473.17 76.75 2471.44 82.98 2466.82 86.75 C 2461.49 90.90 2454.49 91.60 2448.00 92.03 C 2437.64 92.25 2427.29 92.08 2416.94 92.12 C 2416.92 77.41 2416.96 62.70 2416.92 48.00 Z" />
<path fill="#3e9cda" d=" M 25.53 64.50 C 34.03 64.19 42.53 64.52 51.03 64.31 C 51.43 89.91 51.08 115.53 51.20 141.14 C 55.47 141.17 59.73 141.17 64.00 141.16 C 64.03 115.55 63.95 89.94 64.04 64.34 C 72.56 64.42 81.09 64.35 89.61 64.38 C 89.65 89.97 89.60 115.56 89.64 141.15 C 93.88 141.16 98.11 141.16 102.35 141.15 C 102.41 115.56 102.34 89.97 102.39 64.38 C 110.89 64.33 119.40 64.46 127.90 64.30 C 128.13 89.92 127.94 115.53 128.00 141.15 C 132.27 141.18 136.55 141.18 140.82 141.09 C 140.89 115.50 140.59 89.90 140.97 64.31 C 149.47 64.51 157.97 64.21 166.47 64.49 C 166.29 89.97 166.55 115.44 166.34 140.92 C 170.08 141.38 174.68 140.40 177.51 143.54 C 180.08 146.36 178.96 150.54 179.21 154.00 C 123.74 154.00 68.26 154.00 12.79 154.00 C 13.04 150.51 11.91 146.29 14.55 143.48 C 17.37 140.40 21.90 141.36 25.62 140.99 C 25.50 115.49 25.68 90.00 25.53 64.50 Z" />
<path fill="#3e9cda" d=" M 4.14 161.04 C 7.64 159.95 11.37 160.45 14.98 160.36 C 67.98 160.40 120.99 160.36 174.00 160.37 C 178.12 160.44 182.27 160.08 186.37 160.64 C 189.06 161.01 191.56 163.19 191.81 165.98 C 192.27 170.63 192.10 175.34 191.70 180.00 L 0.00 180.00 L 0.00 166.21 C 0.67 164.05 1.83 161.77 4.14 161.04 Z" />
</svg>
